<svg width="200" height="50" viewBox="0 0 420 194" class="css-1j8o68f">
	<defs id="SvgjsDefs4253">
		<linearGradient id="SvgjsLinearGradient4260">
			<stop id="SvgjsStop4261" stop-color="#7d141d" offset="0"></stop>
			<stop id="SvgjsStop4262" stop-color="#ff1e27" offset="1"></stop>
		</linearGradient>
		<linearGradient id="SvgjsLinearGradient4263">
			<stop id="SvgjsStop4264" stop-color="#7d141d" offset="0"></stop>
			<stop id="SvgjsStop4265" stop-color="#ff1e27" offset="1"></stop></linearGradient>
	</defs>
	<g id="SvgjsG4254" featurekey="rootContainer" transform="matrix(1,0,0,1,0,0)" fill="url(#SvgjsLinearGradient4260)">
		<path xmlns="http://www.w3.org/2000/svg" fill-rule="evenodd" d=" M0,0 H420 V194 H0,0 z M2,2 H418 V192 H2,2 z M6,6 H414 V188 H6 z M8,8 H412 V186 H6,8 z "></path>
	</g>
	<g id="SvgjsG4255" featurekey="pKL28P-0" transform="matrix(1.1111111640930176,0,0,1.1111111640930176,44.44444444444444,41.25222206115723)" fill="#bf1922">
		<g xmlns="http://www.w3.org/2000/svg">
			<path fill="#BF1922" d="M60.532,7.873c-8.872,0-16.168,6.702-17.122,15.319h-4.058c-0.954-8.617-8.247-15.319-17.118-15.319   C12.712,7.873,5,15.588,5,25.106c0,9.518,7.712,17.234,17.234,17.234c8.198,0,15.046-5.733,16.792-13.404h4.709   c1.747,7.671,8.595,13.404,16.797,13.404c9.518,0,17.233-7.716,17.233-17.234C77.766,15.588,70.05,7.873,60.532,7.873"></path>
			<path fill="#BF1922" d="M91.17,40.425c-2.116,0-3.829,1.717-3.829,3.83v2.461l-10.103,2.887c-0.822,0.234-1.388,0.987-1.388,1.84   v8.6c0,0.856,0.565,1.606,1.388,1.842l10.103,2.887v2.461c0,2.113,1.713,3.83,3.829,3.83c2.113,0,3.83-1.717,3.83-3.83V44.255   C95,42.142,93.283,40.425,91.17,40.425"></path><path fill="#BF1922" d="M41.383,37.837c-4.144,6.279-11.22,10.248-19.148,10.248c-4.189,0-8.104-1.145-11.489-3.108v18.427   c0,2.115,1.713,3.83,3.829,3.83h15.548L10.745,86.697v5.43h5.396l24.793-24.894h0.976l24.789,24.894h5.322v-5.513L52.719,67.234   h15.473c2.113,0,3.83-1.715,3.83-3.83V44.977c-3.389,1.963-7.305,3.108-11.489,3.108C52.6,48.085,45.523,44.117,41.383,37.837"></path>
		</g>
	</g>
	<g id="SvgjsG4256" featurekey="ptiKCW-0" transform="matrix(2.736726999282837,0,0,2.736726999282837,168.5221673117062,60.71866871648372)" fill="url(#SvgjsLinearGradient4263)">
		<path d="M1.62 20 q-0.46 0 -0.77 -0.31 t-0.31 -0.77 l0 -11.16 q0 -0.46 0.31 -0.77 t0.77 -0.31 l2.16 0 q0.46 0 0.77 0.31 t0.31 0.77 l0 1.44 q0 0.16 -0.1 0.26 t-0.26 0.1 l-0.72 0 q-0.16 0 -0.26 -0.1 t-0.1 -0.26 l0 -0.72 q0 -0.16 -0.1 -0.26 t-0.26 -0.1 l-2.16 0 q0.46 0 0.77 0.31 t0.31 0.77 l0 9 q0 0.16 0.1 0.26 t0.26 0.1 l0.72 0 q0.16 0 0.26 -0.1 t0.1 -0.26 l0 -0.72 q0 -0.16 0.1 -0.26 t0.26 -0.1 l0.72 0 q0.16 0 0.26 0.1 t0.1 0.26 l0 1.44 q0 0.46 -0.31 0.77 t-0.77 0.31 l-2.16 0 z M6.300000000000001 20 q-0.16 0 -0.26 -0.1 t-0.1 -0.26 l0 -12.6 q0 -0.16 0.1 -0.26 t0.26 -0.1 l0.72 0 q0.16 0 0.26 0.1 t0.1 0.26 l0 12.6 q0 0.16 -0.1 0.26 t-0.26 0.1 l-0.72 0 z M12.780000000000001 19.64 q0 0.16 -0.1 0.26 t-0.26 0.1 l-0.72 0 q-0.16 0 -0.26 -0.1 t-0.1 -0.26 l0 -11.16 q0 -0.16 -0.1 -0.26 t-0.26 -0.1 l-2.16 0 q0.46 0 0.77 0.31 t0.31 0.77 l0 10.44 q0 0.16 -0.1 0.26 t-0.26 0.1 l-0.72 0 q-0.16 0 -0.26 -0.1 t-0.1 -0.26 l0 -12.6 q0 -0.16 0.1 -0.26 t0.26 -0.1 l2.88 0 q0.46 0 0.77 0.31 t0.31 0.77 l0 11.88 z M14.940000000000001 20 q-0.46 0 -0.77 -0.31 t-0.31 -0.77 l0 -11.16 q0 -0.46 0.31 -0.77 t0.77 -0.31 l2.88 0 q0.16 0 0.26 0.1 t0.1 0.26 l0 0.72 q0 0.16 -0.1 0.26 t-0.26 0.1 l-3.6 0 q0.46 0 0.77 0.31 t0.31 0.77 l0 3.96 q0 0.16 0.1 0.26 t0.26 0.1 l0.72 0 q0.16 0 0.26 0.1 t0.1 0.26 l0 0.72 q0 0.16 -0.1 0.26 t-0.26 0.1 l-2.16 0 q0.46 0 0.77 0.31 t0.31 0.77 l0 2.16 q0 0.16 0.1 0.26 t0.26 0.1 l2.16 0 q0.16 0 0.26 0.1 t0.1 0.26 l0 0.72 q0 0.16 -0.1 0.26 t-0.26 0.1 l-2.88 0 z M19.259999999999998 7.039999999999999 q0 -0.16 0.1 -0.26 t0.26 -0.1 l2.16 0 q0.46 0 0.77 0.31 t0.31 0.77 q0 -0.46 0.31 -0.77 t0.77 -0.31 l1.44 0 q0.46 0 0.77 0.31 t0.31 0.77 l0 11.88 q0 0.16 -0.1 0.26 t-0.26 0.1 l-0.72 0 q-0.16 0 -0.26 -0.1 t-0.1 -0.26 l0 -11.16 q0 -0.16 -0.1 -0.26 t-0.26 -0.1 l-2.16 0 q0.46 0 0.77 0.31 t0.31 0.77 l0 10.44 q0 0.16 -0.1 0.26 t-0.26 0.1 l-0.72 0 q-0.16 0 -0.26 -0.1 t-0.1 -0.26 l0 -11.16 q0 -0.16 -0.1 -0.26 t-0.26 -0.1 l-2.16 0 q0.46 0 0.77 0.31 t0.31 0.77 l0 10.44 q0 0.16 -0.1 0.26 t-0.26 0.1 l-0.72 0 q-0.16 0 -0.26 -0.1 t-0.1 -0.26 l0 -12.6 z M30.78 6.68 q0.46 0 0.77 0.31 t0.31 0.77 l0 11.88 q0 0.16 -0.1 0.26 t-0.26 0.1 l-0.72 0 q-0.16 0 -0.26 -0.1 t-0.1 -0.26 l0 -4.32 q0 -0.16 -0.1 -0.26 t-0.26 -0.1 l-2.16 0 q0.46 0 0.77 0.31 t0.31 0.77 l0 3.6 q0 0.16 -0.1 0.26 t-0.26 0.1 l-0.72 0 q-0.16 0 -0.26 -0.1 t-0.1 -0.26 l0 -11.88 q0 -0.46 0.31 -0.77 t0.77 -0.31 l2.16 0 z M30.42 8.48 q0 -0.16 -0.1 -0.26 t-0.26 -0.1 l-2.16 0 q0.46 0 0.77 0.31 t0.31 0.77 l0 3.96 q0 0.16 0.1 0.26 t0.26 0.1 l0.72 0 q0.16 0 0.26 -0.1 t0.1 -0.26 l0 -4.68 z M34.739999999999995 20 q-0.16 0 -0.26 -0.1 t-0.1 -0.26 l0 -11.16 q0 -0.16 -0.1 -0.26 t-0.26 -0.1 l-0.72 0 q-0.16 0 -0.26 -0.1 t-0.1 -0.26 l0 -0.72 q0 -0.16 0.1 -0.26 t0.26 -0.1 l3.6 0 q0.16 0 0.26 0.1 t0.1 0.26 l0 0.72 q0 0.16 -0.1 0.26 t-0.26 0.1 l-2.16 0 q0.46 0 0.77 0.31 t0.31 0.77 l0 10.44 q0 0.16 -0.1 0.26 t-0.26 0.1 l-0.72 0 z M38.699999999999996 20 q-0.16 0 -0.26 -0.1 t-0.1 -0.26 l0 -12.6 q0 -0.16 0.1 -0.26 t0.26 -0.1 l0.72 0 q0.16 0 0.26 0.1 t0.1 0.26 l0 12.6 q0 0.16 -0.1 0.26 t-0.26 0.1 l-0.72 0 z M41.94 20 q-0.46 0 -0.77 -0.31 t-0.31 -0.77 l0 -11.16 q0 -0.46 0.31 -0.77 t0.77 -0.31 l2.16 0 q0.46 0 0.77 0.31 t0.31 0.77 l0 1.44 q0 0.16 -0.1 0.26 t-0.26 0.1 l-0.72 0 q-0.16 0 -0.26 -0.1 t-0.1 -0.26 l0 -0.72 q0 -0.16 -0.1 -0.26 t-0.26 -0.1 l-2.16 0 q0.46 0 0.77 0.31 t0.31 0.77 l0 9 q0 0.16 0.1 0.26 t0.26 0.1 l0.72 0 q0.16 0 0.26 -0.1 t0.1 -0.26 l0 -0.72 q0 -0.16 0.1 -0.26 t0.26 -0.1 l0.72 0 q0.16 0 0.26 0.1 t0.1 0.26 l0 1.44 q0 0.46 -0.31 0.77 t-0.77 0.31 l-2.16 0 z M53.82 6.68 q0.46 0 0.77 0.31 t0.31 0.77 l0 1.44 q0 0.16 -0.1 0.26 t-0.26 0.1 l-0.72 0 q-0.16 0 -0.26 -0.1 t-0.1 -0.26 l0 -0.72 q0 -0.16 -0.1 -0.26 t-0.26 -0.1 l-2.16 0 q0.46 0 0.77 0.31 t0.31 0.77 l0 2.52 q0 0.16 0.1 0.26 t0.26 0.1 l1.44 0 q0.46 0 0.77 0.31 t0.31 0.77 l0 5.76 q0 0.46 -0.31 0.77 t-0.77 0.31 l-2.16 0 q-0.46 0 -0.77 -0.31 t-0.31 -0.77 l0 -1.44 q0 -0.16 0.1 -0.26 t0.26 -0.1 l0.72 0 q0.16 0 0.26 0.1 t0.1 0.26 l0 0.72 q0 0.16 0.1 0.26 t0.26 0.1 l0.72 0 q0.16 0 0.26 -0.1 t0.1 -0.26 l0 -4.32 q0 -0.16 -0.1 -0.26 t-0.26 -0.1 l-1.44 0 q-0.46 0 -0.77 -0.31 t-0.31 -0.77 l0 -4.68 q0 -0.46 0.31 -0.77 t0.77 -0.31 l2.16 0 z M57.059999999999995 6.68 q0.16 0 0.26 0.1 t0.1 0.26 l0 10.44 q0 0.46 -0.31 0.77 t-0.77 0.31 l2.16 0 q0.16 0 0.26 -0.1 t0.1 -0.26 l0 -11.16 q0 -0.16 0.1 -0.26 t0.26 -0.1 l0.72 0 q0.16 0 0.26 0.1 t0.1 0.26 l0 12.6 q0 0.16 -0.1 0.26 t-0.26 0.1 l-2.88 0 q-0.46 0 -0.77 -0.31 t-0.31 -0.77 l0 -11.88 q0 -0.16 0.1 -0.26 t0.26 -0.1 l0.72 0 z M61.739999999999995 20 q-0.16 0 -0.26 -0.1 t-0.1 -0.26 l0 -12.6 q0 -0.16 0.1 -0.26 t0.26 -0.1 l0.72 0 q0.16 0 0.26 0.1 t0.1 0.26 l0 12.6 q0 0.16 -0.1 0.26 t-0.26 0.1 l-0.72 0 z M65.7 20 q-0.16 0 -0.26 -0.1 t-0.1 -0.26 l0 -11.16 q0 -0.16 -0.1 -0.26 t-0.26 -0.1 l-0.72 0 q-0.16 0 -0.26 -0.1 t-0.1 -0.26 l0 -0.72 q0 -0.16 0.1 -0.26 t0.26 -0.1 l3.6 0 q0.16 0 0.26 0.1 t0.1 0.26 l0 0.72 q0 0.16 -0.1 0.26 t-0.26 0.1 l-2.16 0 q0.46 0 0.77 0.31 t0.31 0.77 l0 10.44 q0 0.16 -0.1 0.26 t-0.26 0.1 l-0.72 0 z M70.38000000000001 20 q-0.46 0 -0.77 -0.31 t-0.31 -0.77 l0 -11.16 q0 -0.46 0.31 -0.77 t0.77 -0.31 l2.88 0 q0.16 0 0.26 0.1 t0.1 0.26 l0 0.72 q0 0.16 -0.1 0.26 t-0.26 0.1 l-3.6 0 q0.46 0 0.77 0.31 t0.31 0.77 l0 3.96 q0 0.16 0.1 0.26 t0.26 0.1 l0.72 0 q0.16 0 0.26 0.1 t0.1 0.26 l0 0.72 q0 0.16 -0.1 0.26 t-0.26 0.1 l-2.16 0 q0.46 0 0.77 0.31 t0.31 0.77 l0 2.16 q0 0.16 0.1 0.26 t0.26 0.1 l2.16 0 q0.16 0 0.26 0.1 t0.1 0.26 l0 0.72 q0 0.16 -0.1 0.26 t-0.26 0.1 l-2.88 0 z">
		</path>
	</g>
</svg>